Motion_kv03_j
version=1
nRows=6
nColumns=43
inDegrees=yes
endheader
time	pelvis_tilt	pelvis_list	pelvis_rotation	pelvis_tx	pelvis_ty	pelvis_tz	hip_flexion_r	hip_adduction_r	hip_rotation_r	knee_angle_r	ankle_angle_r	subtalar_angle_r	mtp_angle_r	hip_flexion_l	hip_adduction_l	hip_rotation_l	knee_angle_l	ankle_angle_l	subtalar_angle_l	mtp_angle_l	lumbar_extension	lumbar_bending	lumbar_rotation	neck_flexion	neck_lateral_bending	neck_rotation	arm_flex_r	arm_add_r	arm_rot_r	elbow_flex_r	pro_sup_r	wrist_flex_r	wrist_dev_r	hand_finger_flex_r	arm_flex_l	arm_add_l	arm_rot_l	elbow_flex_l	pro_sup_l	wrist_flex_l	wrist_dev_l	hand_finger_flex_l
      0.28000000	     -4.40056120	     35.18150822	    -83.37162663	     -0.01636688	      0.73511077	      0.35095090	     59.08722043	     -4.70109086	     -4.08646994	    -77.92395478	     34.90668281	      1.18701746	     14.37881412	     60.41245859	     -0.42196099	      2.79508065	    -75.59309838	     40.82095498	     -9.84769453	     -2.00991297	    -15.60557901	      1.80304738	     -0.50254862	     39.50691605	      1.85206609	      1.04185316	    141.14595085	    -51.79158596	     90.99570369	     67.27811847	     97.44239981	     25.45658054	    -14.56720248	     45.13224434	    145.25614191	    -42.93052188	    107.46295782	     70.80267869	     81.63112074	     -7.19655286	     -5.25655973	     90.00021046
      0.28250000	     -4.52478373	     35.17233958	    -83.26788151	     -0.01635952	      0.73922467	      0.35460815	     58.34646234	     -4.63403687	     -4.27200987	    -76.87573987	     34.49170212	      1.27595893	     14.74603697	     59.67357934	     -0.51357352	      2.93213668	    -74.54331295	     40.38465537	     -9.82969315	     -1.51898109	    -15.64296383	      1.95262895	     -0.42257443	     39.08201760	      1.58061366	      1.01641056	    141.33132468	    -52.20627517	     92.44270112	     68.14579838	     96.09395638	     23.69866549	    -14.36891601	     51.78887494	    144.76732615	    -43.48495314	    106.97094970	     71.59790895	     81.01702919	     -4.64873862	     -5.67077797	     90.00021046
      0.28500000	     -4.48286268	     35.52590527	    -83.38896429	     -0.01646249	      0.74305005	      0.35787105	     58.03030265	     -4.55452690	     -4.18702853	    -75.79812431	     33.95034498	      1.37818888	     14.73155055	     59.29142153	     -0.61707855	      2.81975577	    -73.46922962	     39.95251091	     -9.77709212	     -1.51318756	    -15.35537398	      1.89146987	     -0.39409611	     38.87584431	      1.48942035	      0.99351399	    141.44157074	    -52.56931873	     93.18290783	     69.16620061	     96.25631472	     24.61258579	    -14.31280512	     52.92378883	    144.68209785	    -44.39336410	    107.00453872	     73.01779981	     80.82419537	     -4.19035469	     -5.94882483	     90.00021046
      0.28750000	     -4.59335941	     35.56140590	    -83.31236439	     -0.01639367	      0.74738315	      0.36170219	     57.29046830	     -4.49208628	     -4.35306454	    -74.65188966	     33.46612586	      1.48517303	     15.17856656	     58.56309887	     -0.72700713	      2.90097846	    -72.36097774	     39.46049339	     -9.73295678	     -0.98044343	    -15.32114434	      1.99904598	     -0.12803202	     38.34427945	      1.19346480	      0.81209512	    141.63178830	    -53.30596096	     94.34132120	     70.38364215	     95.54980096	     23.19569769	    -13.98590754	     58.78998933	    143.72671707	    -44.85402216	    105.98717217	     73.76714988	     81.18439125	     -2.76452263	     -6.27710507	     90.00021046
      0.29000000	     -4.57747207	     35.89727210	    -83.40623589	     -0.01652751	      0.75141336	      0.36519355	     56.92363866	     -4.41474415	     -4.30262274	    -73.52436871	     32.86605466	      1.64323024	     15.16171288	     58.13884277	     -0.85265286	      2.78733229	    -71.23450779	     38.93114303	     -9.60547391	     -0.98930961	    -15.02884829	      1.95150178	     -0.10817936	     38.03334164	      1.15227476	      0.83378741	    141.61192194	    -53.80996285	     94.89062801	     71.56131483	     95.69050910	     23.65709689	    -13.97991488	     59.48162161	    143.52720028	    -45.73386250	    105.95649351	     75.05136373	     81.11073105	     -2.57482574	     -6.52101907	     90.00021046
      0.29250000	     -4.59696475	     35.93621366	    -83.47716938	     -0.01653183	      0.75601834	      0.36920980	     56.15493946	     -4.32367529	     -4.36258763	    -72.28422374	     32.35471024	      1.69939267	     15.33130522	     57.35130952	     -1.00441905	      2.71671143	    -70.05171325	     38.42888202	     -9.65765964	     -0.80609873	    -15.04260314	      1.98254333	      0.18741025	     37.58795001	      0.83238991	      0.72157754	    141.78117311	    -54.59346714	     95.50328093	     73.03164855	     96.10954859	     23.73999669	    -13.42514287	     61.98720959	    142.80852395	    -46.36722406	    105.35719059	     76.10553605	     81.83417071	     -2.82181980	     -6.56919021	     90.00021046
